<svg width="24" height="24" viewBox="0 0 24 24" fill="none" xmlns="http://www.w3.org/2000/svg">
<path fill-rule="evenodd" clip-rule="evenodd" d="M12.7753 2.75072C13.9069 1.65777 15.4225 1.053 16.9957 1.06667C18.5689 1.08034 20.0738 1.71136 21.1862 2.8238C22.2986 3.93625 22.9297 5.44113 22.9433 7.01431C22.957 8.58749 22.3522 10.1031 21.2593 11.2347L21.2471 11.2471L18.2472 14.247C17.639 14.8555 16.907 15.326 16.1008 15.6267C15.2947 15.9274 14.4334 16.0512 13.5752 15.9898C12.717 15.9283 11.8821 15.683 11.1271 15.2705C10.3721 14.858 9.71458 14.2879 9.19923 13.599C8.86843 13.1567 8.95877 12.53 9.40102 12.1992C9.84327 11.8684 10.47 11.9588 10.8008 12.401C11.1443 12.8603 11.5827 13.2404 12.086 13.5154C12.5894 13.7904 13.146 13.9539 13.7181 13.9949C14.2902 14.0359 14.8644 13.9533 15.4018 13.7529C15.9392 13.5524 16.4273 13.2387 16.8328 12.833L19.8264 9.83938C20.5514 9.08561 20.9525 8.07774 20.9434 7.03169C20.9343 5.9829 20.5136 4.97965 19.772 4.23802C19.0304 3.49639 18.0271 3.07571 16.9783 3.0666C15.9318 3.0575 14.9235 3.45891 14.1696 4.18454L12.455 5.88917C12.0634 6.27855 11.4302 6.27671 11.0408 5.88505C10.6514 5.49338 10.6533 4.86022 11.045 4.47084L12.765 2.76084L12.7753 2.75072Z" fill="black"/>
<path fill-rule="evenodd" clip-rule="evenodd" d="M7.89915 8.37329C8.70526 8.07258 9.56661 7.94876 10.4248 8.01022C11.283 8.07169 12.1179 8.31699 12.8729 8.7295C13.6279 9.14201 14.2854 9.71207 14.8008 10.401C15.1316 10.8433 15.0412 11.47 14.599 11.8008C14.1567 12.1316 13.53 12.0412 13.1992 11.599C12.8557 11.1397 12.4173 10.7596 11.914 10.4846C11.4106 10.2096 10.854 10.0461 10.2819 10.0051C9.7098 9.96414 9.13556 10.0467 8.59816 10.2472C8.06075 10.4476 7.57274 10.7613 7.16723 11.167L4.17359 14.1606C3.44855 14.9144 3.0475 15.9223 3.05659 16.9683C3.06571 18.0171 3.48638 19.0204 4.22801 19.762C4.96965 20.5036 5.9729 20.9243 7.02168 20.9334C8.06773 20.9425 9.07559 20.5415 9.82936 19.8164L11.5329 18.1129C11.9234 17.7224 12.5566 17.7224 12.9471 18.1129C13.3376 18.5034 13.3376 19.1366 12.9471 19.5271L11.2371 21.2371L11.2247 21.2493C10.0931 22.3422 8.57748 22.947 7.0043 22.9333C5.43112 22.9197 3.92625 22.2887 2.8138 21.1762C1.70135 20.0638 1.07034 18.5589 1.05667 16.9857C1.043 15.4125 1.64776 13.8969 2.74071 12.7653L2.75289 12.7529L5.75276 9.75303C5.75272 9.75307 5.75281 9.75298 5.75276 9.75303C6.361 9.1446 7.0931 8.67397 7.89915 8.37329Z" fill="black"/>
</svg>
