<svg width="24" height="24" viewBox="0 0 24 24" fill="none" xmlns="http://www.w3.org/2000/svg">
<path d="M15 10C15 8.34315 13.6569 7 12 7C10.3431 7 9 8.34315 9 10C9 11.6569 10.3431 13 12 13C13.6569 13 15 11.6569 15 10ZM12 15C10.6739 15 9.40253 15.5272 8.46484 16.4648C7.64598 17.2837 7.13937 18.3569 7.02441 19.499C8.44981 20.4467 10.16 21 12 21C13.8397 21 15.5493 20.4464 16.9746 19.499C16.8596 18.3569 16.354 17.2837 15.5352 16.4648C14.5975 15.5272 13.3261 15 12 15ZM23 12C23 18.0751 18.0751 23 12 23C5.92487 23 1 18.0751 1 12C1 5.92487 5.92487 1 12 1C18.0751 1 23 5.92487 23 12ZM17 10C17 11.5215 16.3192 12.8827 15.2471 13.7998C15.8689 14.1254 16.4447 14.5443 16.9502 15.0498C17.7793 15.879 18.3777 16.8954 18.707 17.999C20.1322 16.4067 21 14.3051 21 12C21 7.02944 16.9706 3 12 3C7.02944 3 3 7.02944 3 12C3 14.3049 3.86708 16.4068 5.29199 17.999C5.62127 16.8953 6.22059 15.879 7.0498 15.0498C7.5551 14.5445 8.1304 14.1254 8.75195 13.7998C7.68013 12.8828 7 11.5212 7 10C7 7.23858 9.23858 5 12 5C14.7614 5 17 7.23858 17 10Z" fill="black"/>
</svg>
