<svg width="24" height="24" viewBox="0 0 24 24" fill="none" xmlns="http://www.w3.org/2000/svg">
<path d="M11 22V20C11 19.4477 11.4477 19 12 19C12.5523 19 13 19.4477 13 20V22C13 22.5523 12.5523 23 12 23C11.4477 23 11 22.5523 11 22ZM5.63281 16.9531C6.02334 16.5626 6.65635 16.5626 7.04688 16.9531C7.4374 17.3436 7.4374 17.9767 7.04688 18.3672L5.63672 19.7773C5.24617 20.1676 4.61308 20.1678 4.22266 19.7773C3.83224 19.3869 3.83244 18.7538 4.22266 18.3633L5.63281 16.9531ZM16.9531 16.9531C17.3191 16.5871 17.8982 16.5637 18.291 16.8838L18.3672 16.9531L19.7773 18.3633L19.8457 18.4385C20.1663 18.8313 20.1435 19.4112 19.7773 19.7773C19.4112 20.1435 18.8313 20.1663 18.4385 19.8457L18.3633 19.7773L16.9531 18.3672L16.8838 18.291C16.5637 17.8982 16.5871 17.3191 16.9531 16.9531ZM15 12C15 10.3431 13.6569 9 12 9C10.3431 9 9 10.3431 9 12C9 13.6569 10.3431 15 12 15C13.6569 15 15 13.6569 15 12ZM4 11C4.55228 11 5 11.4477 5 12C5 12.5523 4.55228 13 4 13H2C1.44772 13 1 12.5523 1 12C1 11.4477 1.44772 11 2 11H4ZM22 11C22.5523 11 23 11.4477 23 12C23 12.5523 22.5523 13 22 13H20C19.4477 13 19 12.5523 19 12C19 11.4477 19.4477 11 20 11H22ZM4.22266 4.22266C4.58885 3.85646 5.16875 3.83374 5.56152 4.1543L5.63672 4.22266L7.04688 5.63281L7.11621 5.70898C7.4363 6.10175 7.4129 6.68085 7.04688 7.04688C6.68085 7.4129 6.10175 7.4363 5.70898 7.11621L5.63281 7.04688L4.22266 5.63672L4.1543 5.56152C3.83374 5.16875 3.85646 4.58885 4.22266 4.22266ZM18.3633 4.22266C18.7538 3.83244 19.3869 3.83224 19.7773 4.22266C20.1678 4.61308 20.1676 5.24617 19.7773 5.63672L18.3672 7.04688C17.9767 7.4374 17.3436 7.4374 16.9531 7.04688C16.5626 6.65635 16.5626 6.02334 16.9531 5.63281L18.3633 4.22266ZM11 4V2C11 1.44772 11.4477 1 12 1C12.5523 1 13 1.44772 13 2V4C13 4.55228 12.5523 5 12 5C11.4477 5 11 4.55228 11 4ZM17 12C17 14.7614 14.7614 17 12 17C9.23858 17 7 14.7614 7 12C7 9.23858 9.23858 7 12 7C14.7614 7 17 9.23858 17 12Z" fill="black"/>
</svg>
