<svg width="24" height="24" viewBox="0 0 24 24" fill="none" xmlns="http://www.w3.org/2000/svg">
<path fill-rule="evenodd" clip-rule="evenodd" d="M21.7071 1.29289C22.0976 1.68342 22.0976 2.31658 21.7071 2.70711L20.4142 4L22.7071 6.29289C23.0976 6.68342 23.0976 7.31658 22.7071 7.70711L19.2071 11.2071C18.8166 11.5976 18.1834 11.5976 17.7929 11.2071L15.5 8.91421L12.7536 11.6607C13.061 12.0765 13.3185 12.5285 13.5197 13.0075C13.8517 13.7978 14.0241 14.646 14.027 15.5033C14.0299 16.3605 13.8632 17.2099 13.5364 18.0024C13.2097 18.795 12.7294 19.5151 12.1233 20.1213C11.5171 20.7274 10.797 21.2077 10.0044 21.5344C9.21189 21.8612 8.36253 22.0279 7.50528 22.025C6.64803 22.0221 5.79981 21.8497 5.00947 21.5177C4.21913 21.1857 3.50227 20.7006 2.90017 20.0904L2.89267 20.0828C1.70864 18.8568 1.05352 17.2149 1.06833 15.5106C1.08314 13.8063 1.76674 12.176 2.97189 10.9709C4.17704 9.76574 5.80733 9.08214 7.5116 9.06733C8.88443 9.0554 10.2168 9.47819 11.3238 10.2619L20.2929 1.29289C20.6834 0.902369 21.3166 0.902369 21.7071 1.29289ZM19 5.41421L16.9142 7.5L18.5 9.08579L20.5858 7L19 5.41421ZM4.3276 18.6895C3.51021 17.8412 3.05802 16.7061 3.06825 15.528C3.07851 14.3481 3.55177 13.2194 4.3861 12.3851C5.22044 11.5508 6.3491 11.0775 7.52898 11.0673C8.70887 11.057 9.84558 11.5106 10.6943 12.3303C10.7034 12.339 10.7125 12.3476 10.7219 12.3559C11.1283 12.7656 11.4522 13.2498 11.6758 13.7821C11.9057 14.3293 12.025 14.9165 12.027 15.51C12.029 16.1035 11.9136 16.6915 11.6874 17.2402C11.4612 17.7889 11.1287 18.2874 10.709 18.707C10.2894 19.1267 9.79086 19.4592 9.24217 19.6854C8.69348 19.9116 8.10546 20.027 7.51198 20.025C6.9185 20.023 6.33127 19.9037 5.78411 19.6738C5.2386 19.4446 4.74365 19.1101 4.3276 18.6895ZM4.3276 18.6895L4.33129 18.6933L3.612 19.388L4.32383 18.6856L4.3276 18.6895ZM12.0961 12.3181L12.0971 12.3171L12.0961 12.3181Z" fill="black"/>
</svg>
