<svg width="24" height="24" viewBox="0 0 24 24" fill="none" xmlns="http://www.w3.org/2000/svg">
<path fill-rule="evenodd" clip-rule="evenodd" d="M5 1V2C5 1 5.00148 1 5.00148 1L5.00298 1L5.00604 1.00002L5.01245 1.00007L5.02636 1.00032C5.03612 1.00055 5.04685 1.00091 5.05854 1.00146C5.08193 1.00256 5.10916 1.00438 5.14022 1.0073C5.20235 1.01312 5.27957 1.02328 5.37179 1.04057C5.55638 1.07518 5.79964 1.13811 6.10112 1.25117C6.63477 1.45129 7.34884 1.80763 8.24374 2.44039C10.7279 2.01987 13.2721 2.01987 15.7563 2.44039C16.6512 1.80763 17.3652 1.45129 17.8989 1.25117C18.2004 1.13811 18.4436 1.07518 18.6282 1.04057C18.7204 1.02328 18.7976 1.01312 18.8598 1.0073C18.8908 1.00438 18.9181 1.00256 18.9415 1.00146C18.9532 1.00091 18.9639 1.00055 18.9736 1.00032L18.9875 1.00007L18.994 1.00002L18.997 1L18.9985 1C18.9985 1 19 1 19 2V1C19.4612 1 19.8625 1.31536 19.9716 1.76343C20.2541 2.92363 20.2855 4.12871 20.0659 5.29889C20.7523 6.41768 21.0776 7.71579 20.9999 9.03182C20.9846 12.5556 18.4304 14.7234 15.6188 15.3269C15.9599 16.1846 16.0943 17.1189 16 18.0527V22C16 22.5523 15.5523 23 15 23C14.4477 23 14 22.5523 14 22V18C14 17.9631 14.002 17.9263 14.0061 17.8896C14.1162 16.8979 13.8319 15.9026 13.2144 15.1188C12.9774 14.8179 12.9331 14.408 13.1003 14.0634C13.2676 13.7188 13.617 13.5 14 13.5C16.6262 13.5 19 11.7847 19 9C19 8.97869 19.0007 8.95739 19.002 8.93613C19.0674 7.91542 18.7821 6.91375 18.1868 6.08199C18.0173 5.84521 17.9595 5.54634 18.0284 5.26343C18.1853 4.61908 18.2405 3.95659 18.1941 3.29947C17.8002 3.48942 17.2688 3.79843 16.6 4.3C16.3752 4.46857 16.0899 4.53481 15.8139 4.48253C13.2969 4.00582 10.7031 4.00582 8.18609 4.48253C7.91005 4.53481 7.62475 4.46857 7.4 4.3C6.72374 3.79281 6.18791 3.48252 5.7927 3.29313C5.74197 3.94693 5.80028 4.60611 5.96762 5.24758C6.04262 5.53509 5.98588 5.84106 5.81279 6.08256C5.21942 6.91042 4.93143 7.9184 4.99787 8.93477C4.99929 8.95649 5 8.97824 5 9C5 11.7847 7.37383 13.5 10 13.5C10.384 13.5 10.734 13.7198 10.9008 14.0657C11.0675 14.4115 11.0215 14.8223 10.7824 15.1227C10.4732 15.5113 10.2452 15.9528 10.1121 16.4226C9.97805 16.8958 9.93805 17.3951 9.99369 17.8878C9.99789 17.9251 10 17.9625 10 18V22C10 22.5523 9.55228 23 9 23C8.44772 23 8 22.5523 8 22V18.0536C7.92518 17.3252 7.98733 16.5852 8.18787 15.8774C8.241 15.6899 8.30371 15.5058 8.37555 15.3257C5.56633 14.7205 3.01565 12.5535 3.00007 9.03246C2.9211 7.72111 3.24753 6.42084 3.92953 5.30609C3.69356 4.12833 3.72784 2.915 4.03238 1.74758C4.14725 1.30725 4.54493 1 5 1Z" fill="black"/>
<path fill-rule="evenodd" clip-rule="evenodd" d="M1 16C1 15.4477 1.44772 15 2 15C2.86538 15 3.50283 15.4444 3.95725 15.8372C4.14952 16.0034 4.34062 16.1893 4.51137 16.3554C4.54172 16.385 4.57143 16.4139 4.60039 16.4419C4.80331 16.6385 4.98919 16.8135 5.18395 16.9695C5.56252 17.2728 5.94226 17.4775 6.4155 17.5398C6.89641 17.6032 7.58458 17.5338 8.59461 17.0859C9.09948 16.862 9.69026 17.0897 9.91415 17.5946C10.138 18.0995 9.91025 18.6903 9.40539 18.9141C8.16042 19.4662 7.09609 19.6468 6.15419 19.5227C5.20462 19.3975 4.49123 18.9772 3.93355 18.5305C3.66018 18.3115 3.41716 18.0802 3.20879 17.8784C3.17387 17.8446 3.14022 17.8119 3.10765 17.7802C2.93556 17.613 2.79328 17.4747 2.64931 17.3503C2.30842 17.0556 2.13462 17 2 17C1.44772 17 1 16.5523 1 16Z" fill="black"/>
</svg>
