<svg width="24" height="24" viewBox="0 0 24 24" fill="none" xmlns="http://www.w3.org/2000/svg">
<path d="M21.75 6C21.7497 5.43896 21.5921 4.88925 21.2951 4.41328C20.9981 3.93732 20.5736 3.55418 20.0697 3.30738C19.5659 3.06057 19.0029 2.96 18.4448 3.01708C17.8867 3.07415 17.3557 3.28659 16.9123 3.63027C16.4688 3.97394 16.1306 4.43508 15.9361 4.96131C15.7416 5.48755 15.6985 6.05778 15.8118 6.60726C15.9251 7.15674 16.1902 7.66345 16.577 8.06983C16.9638 8.47621 17.4568 8.76599 18 8.90625V10.5C18 10.6989 17.921 10.8897 17.7803 11.0303C17.6397 11.171 17.4489 11.25 17.25 11.25H9.00001C8.74445 11.2499 8.49077 11.2937 8.25001 11.3794V8.90625C8.957 8.7237 9.57315 8.28958 9.98296 7.68524C10.3928 7.08091 10.5681 6.34786 10.4761 5.6235C10.3841 4.89914 10.0311 4.2332 9.48318 3.75051C8.9353 3.26782 8.23019 3.00151 7.50001 3.00151C6.76983 3.00151 6.06471 3.26782 5.51683 3.75051C4.96895 4.2332 4.61592 4.89914 4.52392 5.6235C4.43191 6.34786 4.60725 7.08091 5.01706 7.68524C5.42687 8.28958 6.04301 8.7237 6.75001 8.90625V15.0938C6.04301 15.2763 5.42687 15.7104 5.01706 16.3148C4.60725 16.9191 4.43191 17.6521 4.52392 18.3765C4.61592 19.1009 4.96895 19.7668 5.51683 20.2495C6.06471 20.7322 6.76983 20.9985 7.50001 20.9985C8.23019 20.9985 8.9353 20.7322 9.48318 20.2495C10.0311 19.7668 10.3841 19.1009 10.4761 18.3765C10.5681 17.6521 10.3928 16.9191 9.98296 16.3148C9.57315 15.7104 8.957 15.2763 8.25001 15.0938V13.5C8.25001 13.3011 8.32903 13.1103 8.46968 12.9697C8.61033 12.829 8.8011 12.75 9.00001 12.75H17.25C17.8467 12.75 18.419 12.5129 18.841 12.091C19.263 11.669 19.5 11.0967 19.5 10.5V8.90625C20.1437 8.73904 20.7138 8.36303 21.121 7.83712C21.5282 7.31121 21.7494 6.6651 21.75 6ZM6.00001 6C6.00001 5.70333 6.08798 5.41332 6.2528 5.16664C6.41762 4.91997 6.65189 4.72771 6.92598 4.61418C7.20007 4.50065 7.50167 4.47094 7.79264 4.52882C8.08361 4.5867 8.35089 4.72956 8.56067 4.93934C8.77045 5.14912 8.91331 5.41639 8.97119 5.70736C9.02906 5.99834 8.99936 6.29994 8.88583 6.57402C8.77229 6.84811 8.58004 7.08238 8.33336 7.2472C8.08669 7.41203 7.79668 7.5 7.50001 7.5C7.10218 7.5 6.72065 7.34196 6.43935 7.06066C6.15804 6.77935 6.00001 6.39782 6.00001 6ZM9.00001 18C9.00001 18.2967 8.91203 18.5867 8.74721 18.8334C8.58239 19.08 8.34812 19.2723 8.07403 19.3858C7.79994 19.4994 7.49834 19.5291 7.20737 19.4712C6.9164 19.4133 6.64913 19.2704 6.43935 19.0607C6.22957 18.8509 6.08671 18.5836 6.02883 18.2926C5.97095 18.0017 6.00066 17.7001 6.11419 17.426C6.22772 17.1519 6.41998 16.9176 6.66665 16.7528C6.91333 16.588 7.20334 16.5 7.50001 16.5C7.89783 16.5 8.27936 16.658 8.56067 16.9393C8.84197 17.2206 9.00001 17.6022 9.00001 18ZM18.75 7.5C18.4533 7.5 18.1633 7.41203 17.9167 7.2472C17.67 7.08238 17.4777 6.84811 17.3642 6.57402C17.2507 6.29994 17.221 5.99834 17.2788 5.70736C17.3367 5.41639 17.4796 5.14912 17.6893 4.93934C17.8991 4.72956 18.1664 4.5867 18.4574 4.52882C18.7483 4.47094 19.0499 4.50065 19.324 4.61418C19.5981 4.72771 19.8324 4.91997 19.9972 5.16664C20.162 5.41332 20.25 5.70333 20.25 6C20.25 6.39782 20.092 6.77935 19.8107 7.06066C19.5294 7.34196 19.1478 7.5 18.75 7.5Z" fill="black"/>
</svg>
