<svg width="24" height="24" viewBox="0 0 24 24" fill="none" xmlns="http://www.w3.org/2000/svg">
<path fill-rule="evenodd" clip-rule="evenodd" d="M4 5C3.44772 5 3 5.44772 3 6V18C3 18.5523 3.44772 19 4 19H20C20.5523 19 21 18.5523 21 18V6C21 5.44772 20.5523 5 20 5H4ZM1 6C1 4.34315 2.34315 3 4 3H20C21.6569 3 23 4.34315 23 6V18C23 19.6569 21.6569 21 20 21H4C2.34315 21 1 19.6569 1 18V6Z" fill="black"/>
<path fill-rule="evenodd" clip-rule="evenodd" d="M1.15599 6.46367C1.4522 5.99754 2.0702 5.85978 2.53633 6.15599L11.5032 11.854C11.6522 11.9468 11.8244 11.996 12 11.996C12.1757 11.996 12.3478 11.9468 12.4968 11.854L12.4991 11.8526L21.4637 6.15599C21.9298 5.85978 22.5478 5.99754 22.844 6.46367C23.1402 6.92981 23.0025 7.5478 22.5363 7.84401L13.5609 13.5474C13.0931 13.8406 12.5521 13.996 12 13.996C11.4479 13.996 10.9069 13.8405 10.4391 13.5474L10.4337 13.544L1.46368 7.84401C0.997543 7.5478 0.859789 6.92981 1.15599 6.46367Z" fill="black"/>
</svg>
