<svg width="24" height="24" viewBox="0 0 24 24" fill="none" xmlns="http://www.w3.org/2000/svg">
<path fill-rule="evenodd" clip-rule="evenodd" d="M11 20C11 19.4477 11.4477 19 12 19H21C21.5523 19 22 19.4477 22 20C22 20.5523 21.5523 21 21 21H12C11.4477 21 11 20.5523 11 20Z" fill="black"/>
<path fill-rule="evenodd" clip-rule="evenodd" d="M18 3.87868C17.7026 3.87868 17.4174 3.99682 17.2071 4.2071L4.90296 16.5112L4.37437 18.6256L6.48875 18.097L18.7929 5.79289C18.897 5.68877 18.9796 5.56515 19.036 5.42911C19.0923 5.29306 19.1213 5.14725 19.1213 5C19.1213 4.85274 19.0923 4.70693 19.036 4.57089C18.9796 4.43484 18.897 4.31123 18.7929 4.2071C18.6888 4.10298 18.5652 4.02038 18.4291 3.96403C18.2931 3.90768 18.1473 3.87868 18 3.87868ZM15.7929 2.79289C16.3783 2.20753 17.1722 1.87868 18 1.87868C18.4099 1.87868 18.8158 1.95941 19.1945 2.11627C19.5732 2.27313 19.9173 2.50305 20.2071 2.79289C20.4969 3.08273 20.7269 3.42682 20.8837 3.80552C21.0406 4.18422 21.1213 4.5901 21.1213 5C21.1213 5.4099 21.0406 5.81578 20.8837 6.19448C20.7269 6.57317 20.4969 6.91726 20.2071 7.2071L7.7071 19.7071C7.57895 19.8353 7.41837 19.9262 7.24253 19.9701L3.24253 20.9701C2.90176 21.0553 2.54127 20.9555 2.29289 20.7071C2.04451 20.4587 1.94466 20.0982 2.02986 19.7575L3.02986 15.7575C3.07381 15.5816 3.16473 15.4211 3.29289 15.2929L15.7929 2.79289Z" fill="black"/>
</svg>
