<svg width="96" height="22" viewBox="0 0 96 22" fill="none" xmlns="http://www.w3.org/2000/svg">
<path d="M5.09967 0.431669C6.52382 -0.045755 8.05161 -0.116128 9.52643 0.166044C19.4201 2.05834 21.1521 7.38531 21.2081 10.7227C21.2262 12.1888 20.8795 13.6362 20.2003 14.9336C18.8779 17.4843 15.5677 22.6299 10.6602 21.9366C4.16826 21.0192 -0.375508 16.5075 0.0244728 7.92581C0.249276 3.09898 2.85915 1.18344 5.09967 0.431669ZM7.18756 5.81741C5.79234 5.66887 4.79261 7.15298 5.43854 8.41409C5.69349 8.91214 5.82183 9.46705 5.81354 10.0283C5.80524 10.5895 5.77378 11.0381 5.39068 11.6309C5.0074 12.2239 3.89264 13.5801 3.89264 13.5801C3.86405 13.6322 3.84862 13.6905 3.84771 13.75C3.84681 13.8097 3.86066 13.869 3.88775 13.9219C3.91484 13.9746 3.9545 14.0203 4.00299 14.0537C4.05153 14.0872 4.10766 14.1081 4.16607 14.1143C4.16607 14.1143 5.76767 14.0253 6.43951 13.9375C7.11124 13.8499 7.60263 14.213 8.09576 14.5537C8.58889 14.8945 8.99077 15.3539 9.26568 15.8907C9.91331 17.1523 11.6864 17.1765 12.3692 15.9326L16.0372 9.25491C16.1784 8.99738 16.2546 8.70846 16.2588 8.41409C16.263 8.11961 16.1945 7.82864 16.0606 7.56741C15.9267 7.30625 15.7313 7.08278 15.4913 6.91702C15.2512 6.75125 14.9738 6.64806 14.6846 6.61722L7.18756 5.81741Z" fill="white"/>
<path d="M31.5714 17.8349C30.3821 17.8349 29.3618 17.6578 28.5106 17.3036C27.6593 16.9494 27.0146 16.4876 26.5764 15.9184C26.1508 15.3365 25.9254 14.7039 25.9004 14.0208C25.9004 13.9196 25.9379 13.8311 26.0131 13.7552C26.1007 13.6666 26.2008 13.6223 26.3135 13.6223H28.6796C28.8298 13.6223 28.9487 13.654 29.0363 13.7172C29.1365 13.7678 29.2366 13.85 29.3368 13.9639C29.4995 14.2928 29.7624 14.5648 30.1255 14.7798C30.4885 14.9949 30.9705 15.1024 31.5714 15.1024C32.285 15.1024 32.8295 14.9886 33.2051 14.7609C33.5806 14.5332 33.7684 14.2232 33.7684 13.8311C33.7684 13.5528 33.6683 13.3251 33.468 13.148C33.2802 12.9708 32.9797 12.8127 32.5666 12.6736C32.1535 12.5344 31.5401 12.3763 30.7264 12.1992C29.2241 11.8829 28.0974 11.4212 27.3463 10.814C26.6077 10.1941 26.2384 9.31492 26.2384 8.17639C26.2384 7.40472 26.4512 6.71528 26.8769 6.10807C27.3025 5.50085 27.9097 5.02647 28.6983 4.68491C29.487 4.34335 30.4071 4.17257 31.4587 4.17257C32.5479 4.17257 33.493 4.36233 34.2942 4.74184C35.0954 5.12135 35.7026 5.60206 36.1157 6.18397C36.5413 6.75323 36.7667 7.31617 36.7917 7.87278C36.7917 7.98663 36.7542 8.08151 36.679 8.15741C36.6039 8.23332 36.51 8.27127 36.3974 8.27127H33.9187C33.7684 8.27127 33.6432 8.24597 33.5431 8.19537C33.4555 8.14476 33.3741 8.06254 33.299 7.94868C33.2239 7.65773 33.0173 7.41105 32.6793 7.20864C32.3538 7.00624 31.947 6.90504 31.4587 6.90504C30.8954 6.90504 30.4635 7.00624 30.163 7.20864C29.8626 7.41105 29.7124 7.70833 29.7124 8.10049C29.7124 8.36614 29.7937 8.58752 29.9565 8.76463C30.1317 8.94173 30.4071 9.10619 30.7827 9.25799C31.1708 9.39714 31.7216 9.54262 32.4352 9.69442C33.5994 9.90948 34.5258 10.1815 35.2143 10.5104C35.9154 10.8266 36.4287 11.2441 36.7542 11.7627C37.0796 12.2688 37.2424 12.9076 37.2424 13.6793C37.2424 14.5268 36.9983 15.2669 36.51 15.8994C36.0343 16.5193 35.3646 17 34.5008 17.3415C33.6495 17.6704 32.673 17.8349 31.5714 17.8349Z" fill="white"/>
<path d="M43.9102 17.8277C41.3189 17.8277 40.0232 16.5817 40.0232 14.0896V10.4463H38.5585C38.4208 10.4463 38.3018 10.402 38.2017 10.3135C38.1141 10.2249 38.0702 10.1111 38.0702 9.97192V8.43491C38.0702 8.29576 38.1141 8.1819 38.2017 8.09335C38.3018 8.0048 38.4208 7.96052 38.5585 7.96052H40.0232V4.64626C40.0232 4.50711 40.067 4.39326 40.1546 4.3047C40.2548 4.21615 40.3674 4.17188 40.4926 4.17188H42.6709C42.8086 4.17188 42.9213 4.21615 43.0089 4.3047C43.0965 4.39326 43.1403 4.50711 43.1403 4.64626V7.96052H45.4876C45.6253 7.96052 45.738 8.0048 45.8256 8.09335C45.9258 8.1819 45.9758 8.29576 45.9758 8.43491V9.97192C45.9758 10.1111 45.9258 10.2249 45.8256 10.3135C45.738 10.402 45.6253 10.4463 45.4876 10.4463H43.1403V13.8239C43.1403 14.7601 43.4971 15.2281 44.2107 15.2281H45.6566C45.7943 15.2281 45.907 15.2724 45.9946 15.3609C46.0822 15.4495 46.1261 15.5633 46.1261 15.7025V17.3534C46.1261 17.4799 46.0822 17.5937 45.9946 17.6949C45.907 17.7835 45.7943 17.8277 45.6566 17.8277H43.9102Z" fill="white"/>
<path d="M50.4993 17.8349C49.8358 17.8349 49.2287 17.7084 48.6778 17.4554C48.1395 17.1897 47.7139 16.8355 47.4009 16.3928C47.1005 15.9373 46.9503 15.4377 46.9503 14.8937C46.9503 14.0208 47.3008 13.3187 48.0018 12.7874C48.7154 12.2561 49.6919 11.8892 50.9312 11.6868L53.2785 11.3263V11.0607C53.2785 10.5799 53.1783 10.2257 52.978 9.99803C52.7777 9.77033 52.4397 9.65647 51.964 9.65647C51.6761 9.65647 51.4382 9.70707 51.2505 9.80828C51.0627 9.90948 50.8686 10.0486 50.6683 10.2257C50.4931 10.3775 50.3616 10.4787 50.274 10.5293C50.2364 10.6305 50.1676 10.6811 50.0674 10.6811H48.0206C47.8954 10.6811 47.789 10.6432 47.7014 10.5673C47.6263 10.4787 47.595 10.3775 47.6075 10.2637C47.62 9.92213 47.7828 9.54262 48.0957 9.12516C48.4212 8.7077 48.9094 8.34717 49.5604 8.04356C50.2239 7.73995 51.0376 7.58815 52.0016 7.58815C53.5414 7.58815 54.6806 7.93603 55.4192 8.6318C56.1578 9.31492 56.5271 10.2384 56.5271 11.4022V17.3605C56.5271 17.487 56.4833 17.6009 56.3957 17.7021C56.308 17.7906 56.1954 17.8349 56.0577 17.8349H53.8794C53.7542 17.8349 53.6415 17.7906 53.5414 17.7021C53.4537 17.6009 53.4099 17.487 53.4099 17.3605V16.5066C53.1345 16.8988 52.7464 17.2213 52.2457 17.4744C51.7575 17.7147 51.1753 17.8349 50.4993 17.8349ZM51.3819 15.6717C51.9578 15.6717 52.421 15.4819 52.7715 15.1024C53.1345 14.7229 53.316 14.1663 53.316 13.4326V13.1669L51.7199 13.4516C50.5932 13.654 50.0299 14.0524 50.0299 14.647C50.0299 14.9633 50.1613 15.2163 50.4242 15.406C50.6871 15.5831 51.0063 15.6717 51.3819 15.6717Z" fill="white"/>
<path d="M58.3841 17.8304C58.2464 17.8304 58.1337 17.7861 58.0461 17.6976C57.9584 17.609 57.9146 17.4952 57.9146 17.356V8.4432C57.9146 8.30405 57.9584 8.1902 58.0461 8.10165C58.1337 8.01309 58.2464 7.96882 58.3841 7.96882H60.5435C60.6813 7.96882 60.7939 8.01942 60.8815 8.12062C60.9817 8.20917 61.0318 8.3167 61.0318 8.4432V9.20222C61.7203 8.37995 62.6467 7.96882 63.8109 7.96882H64.6372C64.7749 7.96882 64.8876 8.01309 64.9752 8.10165C65.0628 8.1902 65.1066 8.30405 65.1066 8.4432V10.3977C65.1066 10.5242 65.0628 10.638 64.9752 10.7392C64.8876 10.8278 64.7749 10.8721 64.6372 10.8721H62.8157C62.3024 10.8721 61.9018 11.0175 61.6139 11.3085C61.3385 11.5868 61.2008 12.0255 61.2008 12.5442V17.356C61.2008 17.4952 61.1507 17.609 61.0506 17.6976C60.9629 17.7861 60.8503 17.8304 60.7126 17.8304H58.3841Z" fill="white"/>
<path d="M71.775 17.8342C69.1836 17.8342 67.888 16.5882 67.888 14.0961V10.4289H66.4233C66.2855 10.4289 66.1666 10.3847 66.0665 10.2961C65.9788 10.2076 65.935 10.0937 65.935 9.95455V8.41754C65.935 8.27839 65.9788 8.16453 66.0665 8.07598C66.1666 7.98743 66.2855 7.94315 66.4233 7.94315H67.888V4.64696C67.888 4.50781 67.9318 4.39395 68.0194 4.3054C68.1195 4.21685 68.2322 4.17257 68.3574 4.17257H70.5357C70.6734 4.17257 70.786 4.21685 70.8737 4.3054C70.9613 4.39395 71.0051 4.50781 71.0051 4.64696V7.94315H73.3524C73.4901 7.94315 73.6028 7.98743 73.6904 8.07598C73.7905 8.16453 73.8406 8.27839 73.8406 8.41754V9.95455C73.8406 10.0937 73.7905 10.2076 73.6904 10.2961C73.6028 10.3847 73.4901 10.4289 73.3524 10.4289H71.0051V13.8304C71.0051 14.7665 71.3619 15.2346 72.0755 15.2346H73.5214C73.6591 15.2346 73.7718 15.2789 73.8594 15.3674C73.947 15.456 73.9908 15.5698 73.9908 15.709V17.3598C73.9908 17.4863 73.947 17.6002 73.8594 17.7014C73.7718 17.7899 73.6591 17.8342 73.5214 17.8342H71.775Z" fill="white"/>
<path d="M84.3248 17.8349C82.5597 17.8349 81.1763 17.3984 80.1748 16.5256C79.1859 15.6527 78.6914 14.3371 78.6914 12.5787V4.65503C78.6914 4.51587 78.7352 4.40202 78.8228 4.31347C78.923 4.22492 79.0356 4.18064 79.1608 4.18064H81.5832C81.7209 4.18064 81.8336 4.22492 81.9212 4.31347C82.0214 4.40202 82.0714 4.51587 82.0714 4.65503V12.5597C82.0714 13.382 82.2592 14.0018 82.6348 14.4193C83.0229 14.8241 83.58 15.0265 84.306 15.0265C85.0196 15.0265 85.5704 14.8178 85.9585 14.4003C86.3466 13.9829 86.5406 13.3693 86.5406 12.5597V4.65503C86.5406 4.51587 86.5845 4.40202 86.6721 4.31347C86.7722 4.22492 86.8849 4.18064 87.0101 4.18064H89.4513C89.589 4.18064 89.7016 4.22492 89.7893 4.31347C89.8769 4.40202 89.9207 4.51587 89.9207 4.65503V12.5787C89.9207 14.3371 89.42 15.6527 88.4184 16.5256C87.4295 17.3984 86.0649 17.8349 84.3248 17.8349Z" fill="white"/>
<path d="M92.9956 17.8342C92.8704 17.8342 92.7577 17.7899 92.6576 17.7014C92.57 17.6002 92.5261 17.4863 92.5261 17.3598V4.65503C92.5261 4.51587 92.57 4.40202 92.6576 4.31347C92.7577 4.22492 92.8704 4.18064 92.9956 4.18064H95.5119C95.6496 4.18064 95.7622 4.22492 95.8499 4.31347C95.95 4.40202 96.0001 4.51587 96.0001 4.65503V17.3598C96.0001 17.499 95.95 17.6128 95.8499 17.7014C95.7622 17.7899 95.6496 17.8342 95.5119 17.8342H92.9956Z" fill="white"/>
</svg>
