<svg width="25" height="24" viewBox="0 0 25 24" fill="none" xmlns="http://www.w3.org/2000/svg">
<path d="M23 5.25V18.75C23 18.9489 22.921 19.1397 22.7803 19.2803C22.6397 19.421 22.4489 19.5 22.25 19.5H15.5C14.9042 19.5 14.3328 19.7363 13.911 20.157C13.4892 20.5778 13.2515 21.1486 13.25 21.7444C13.253 21.8975 13.2085 22.0478 13.1225 22.1746C13.0365 22.3013 12.9134 22.3983 12.77 22.4522C12.6562 22.4961 12.5334 22.5116 12.4122 22.4973C12.291 22.483 12.1752 22.4394 12.0747 22.3702C11.9742 22.3011 11.8921 22.2084 11.8355 22.1003C11.779 21.9923 11.7496 21.872 11.75 21.75C11.75 21.1533 11.5129 20.581 11.091 20.159C10.669 19.7371 10.0967 19.5 9.5 19.5H2.75C2.55109 19.5 2.36032 19.421 2.21967 19.2803C2.07902 19.1397 2 18.9489 2 18.75V5.25C2 5.05109 2.07902 4.86032 2.21967 4.71967C2.36032 4.57902 2.55109 4.5 2.75 4.5H8.75C9.54565 4.5 10.3087 4.81607 10.8713 5.37868C11.4339 5.94129 11.75 6.70435 11.75 7.5V15.7247C11.7474 15.9182 11.8182 16.1056 11.9481 16.2491C12.078 16.3926 12.2575 16.4816 12.4503 16.4981C12.5529 16.5049 12.6558 16.4906 12.7526 16.456C12.8494 16.4213 12.9381 16.3672 13.0131 16.2968C13.0881 16.2265 13.1478 16.1415 13.1885 16.0471C13.2293 15.9527 13.2502 15.8509 13.25 15.7481V7.5C13.25 6.70435 13.5661 5.94129 14.1287 5.37868C14.6913 4.81607 15.4544 4.5 16.25 4.5H22.25C22.4489 4.5 22.6397 4.57902 22.7803 4.71967C22.921 4.86032 23 5.05109 23 5.25Z" fill="currentColor"/>
</svg>
