<svg width="25" height="24" viewBox="0 0 25 24" fill="none" xmlns="http://www.w3.org/2000/svg">
<path opacity="0.2" d="M22.25 5.25V18.75H15.5C14.7044 18.75 13.9413 19.0661 13.3787 19.6287C12.8161 20.1913 12.5 20.9544 12.5 21.75C12.5 20.9544 12.1839 20.1913 11.6213 19.6287C11.0587 19.0661 10.2956 18.75 9.5 18.75H2.75V5.25H9.5C10.2956 5.25 11.0587 5.56607 11.6213 6.12868C12.1839 6.69129 12.5 7.45435 12.5 8.25C12.5 7.45435 12.8161 6.69129 13.3787 6.12868C13.9413 5.56607 14.7044 5.25 15.5 5.25H22.25Z" fill="#171717"/>
<path d="M22.25 4.5H15.5C14.9178 4.5 14.3437 4.63554 13.8229 4.8959C13.3022 5.15625 12.8493 5.53426 12.5 6C12.1507 5.53426 11.6978 5.15625 11.1771 4.8959C10.6563 4.63554 10.0822 4.5 9.5 4.5H2.75C2.55109 4.5 2.36032 4.57902 2.21967 4.71967C2.07902 4.86032 2 5.05109 2 5.25V18.75C2 18.9489 2.07902 19.1397 2.21967 19.2803C2.36032 19.421 2.55109 19.5 2.75 19.5H9.5C10.0967 19.5 10.669 19.7371 11.091 20.159C11.5129 20.581 11.75 21.1533 11.75 21.75C11.75 21.9489 11.829 22.1397 11.9697 22.2803C12.1103 22.421 12.3011 22.5 12.5 22.5C12.6989 22.5 12.8897 22.421 13.0303 22.2803C13.171 22.1397 13.25 21.9489 13.25 21.75C13.25 21.1533 13.4871 20.581 13.909 20.159C14.331 19.7371 14.9033 19.5 15.5 19.5H22.25C22.4489 19.5 22.6397 19.421 22.7803 19.2803C22.921 19.1397 23 18.9489 23 18.75V5.25C23 5.05109 22.921 4.86032 22.7803 4.71967C22.6397 4.57902 22.4489 4.5 22.25 4.5ZM9.5 18H3.5V6H9.5C10.0967 6 10.669 6.23705 11.091 6.65901C11.5129 7.08097 11.75 7.65326 11.75 8.25V18.75C11.1015 18.262 10.3116 17.9987 9.5 18ZM21.5 18H15.5C14.6884 17.9987 13.8985 18.262 13.25 18.75V8.25C13.25 7.65326 13.4871 7.08097 13.909 6.65901C14.331 6.23705 14.9033 6 15.5 6H21.5V18Z" fill="#171717"/>
</svg>
