<svg width="25" height="24" viewBox="0 0 25 24" fill="none" xmlns="http://www.w3.org/2000/svg">
<path d="M21.1667 11.2498V20.2498C21.1667 20.4487 21.0877 20.6395 20.9471 20.7801C20.8064 20.9208 20.6157 20.9998 20.4167 20.9998H15.1667C14.9678 20.9998 14.7771 20.9208 14.6364 20.7801C14.4958 20.6395 14.4167 20.4487 14.4167 20.2498V15.3748C14.4167 15.2753 14.3772 15.18 14.3069 15.1096C14.2366 15.0393 14.1412 14.9998 14.0417 14.9998H10.2917C10.1923 14.9998 10.0969 15.0393 10.0266 15.1096C9.95626 15.18 9.91675 15.2753 9.91675 15.3748V20.2498C9.91675 20.4487 9.83773 20.6395 9.69708 20.7801C9.55643 20.9208 9.36566 20.9998 9.16675 20.9998H3.91675C3.71784 20.9998 3.52707 20.9208 3.38642 20.7801C3.24577 20.6395 3.16675 20.4487 3.16675 20.2498V11.2498C3.16693 10.852 3.32509 10.4706 3.60644 10.1895L11.1064 2.68948C11.3877 2.40839 11.7691 2.25049 12.1667 2.25049C12.5644 2.25049 12.9458 2.40839 13.2271 2.68948L20.7271 10.1895C21.0084 10.4706 21.1666 10.852 21.1667 11.2498Z" fill="currentColor"/>
</svg>
