<svg width="25" height="24" viewBox="0 0 25 24" fill="none" xmlns="http://www.w3.org/2000/svg">
<path opacity="0.2" d="M20.4167 11.2501V20.2501H14.4167V14.2501H9.91675V20.2501H3.91675V11.2501C3.91667 11.1516 3.936 11.054 3.97365 10.963C4.01129 10.8719 4.0665 10.7892 4.13612 10.7195L11.6361 3.21948C11.7058 3.14974 11.7885 3.09443 11.8795 3.05668C11.9706 3.01894 12.0682 2.99951 12.1667 2.99951C12.2653 2.99951 12.3629 3.01894 12.454 3.05668C12.545 3.09443 12.6277 3.14974 12.6974 3.21948L20.1974 10.7195C20.267 10.7892 20.3222 10.8719 20.3599 10.963C20.3975 11.054 20.4168 11.1516 20.4167 11.2501Z" fill="#171717"/>
<path d="M20.7271 10.1887L13.2271 2.68875C12.9458 2.40766 12.5644 2.24976 12.1668 2.24976C11.7691 2.24976 11.3877 2.40766 11.1064 2.68875L3.60644 10.1887C3.46648 10.3277 3.35553 10.493 3.28005 10.6752C3.20457 10.8574 3.16606 11.0528 3.16676 11.25V20.25C3.16676 20.4489 3.24578 20.6397 3.38643 20.7803C3.52708 20.921 3.71785 21 3.91676 21H9.91676C10.1157 21 10.3064 20.921 10.4471 20.7803C10.5877 20.6397 10.6668 20.4489 10.6668 20.25V15H13.6668V20.25C13.6668 20.4489 13.7458 20.6397 13.8864 20.7803C14.0271 20.921 14.2178 21 14.4168 21H20.4168C20.6157 21 20.8064 20.921 20.9471 20.7803C21.0877 20.6397 21.1668 20.4489 21.1668 20.25V11.25C21.1675 11.0528 21.129 10.8574 21.0535 10.6752C20.978 10.493 20.867 10.3277 20.7271 10.1887ZM19.6668 19.5H15.1668V14.25C15.1668 14.0511 15.0877 13.8603 14.9471 13.7197C14.8064 13.579 14.6157 13.5 14.4168 13.5H9.91676C9.71784 13.5 9.52708 13.579 9.38643 13.7197C9.24578 13.8603 9.16676 14.0511 9.16676 14.25V19.5H4.66676V11.25L12.1668 3.75L19.6668 11.25V19.5Z" fill="#171717"/>
</svg>
