<svg width="25" height="24" viewBox="0 0 25 24" fill="none" xmlns="http://www.w3.org/2000/svg">
<path d="M16.9585 11.25C16.9585 12.0658 16.7166 12.8634 16.2633 13.5417C15.8101 14.2201 15.1658 14.7488 14.4121 15.061C13.6583 15.3732 12.8289 15.4549 12.0288 15.2957C11.2286 15.1366 10.4936 14.7437 9.91668 14.1668C9.33979 13.5899 8.94693 12.8549 8.78776 12.0547C8.6286 11.2546 8.71029 10.4252 9.0225 9.67143C9.33471 8.91769 9.86342 8.27345 10.5418 7.82019C11.2201 7.36693 12.0177 7.125 12.8335 7.125C13.9271 7.12624 14.9756 7.56124 15.7489 8.33455C16.5223 9.10787 16.9573 10.1564 16.9585 11.25ZM22.5835 12C22.5835 13.9284 22.0117 15.8134 20.9403 17.4168C19.869 19.0202 18.3462 20.2699 16.5647 21.0078C14.7831 21.7458 12.8227 21.9389 10.9314 21.5627C9.04006 21.1865 7.30277 20.2579 5.93921 18.8943C4.57565 17.5307 3.64705 15.7934 3.27084 13.9021C2.89464 12.0108 3.08772 10.0504 3.82568 8.26884C4.56363 6.48726 5.81331 4.96452 7.41669 3.89317C9.02007 2.82183 10.9051 2.25 12.8335 2.25C15.4185 2.25273 17.8969 3.28084 19.7248 5.10872C21.5527 6.93661 22.5808 9.41498 22.5835 12ZM21.0835 12C21.0823 10.8896 20.8572 9.79077 20.4216 8.76934C19.986 7.7479 19.3489 6.82481 18.5483 6.05525C17.7478 5.2857 16.8003 4.68549 15.7624 4.29053C14.7246 3.89556 13.6178 3.71395 12.5082 3.75656C8.09256 3.92719 4.57131 7.605 4.5835 12.0234C4.58773 14.0349 5.32958 15.9749 6.6685 17.4759C7.21377 16.6851 7.90641 16.0068 8.7085 15.4781C8.77689 15.433 8.85818 15.4114 8.93996 15.4169C9.02174 15.4223 9.09948 15.4543 9.16131 15.5081C10.1805 16.3897 11.4831 16.8749 12.8307 16.8749C14.1783 16.8749 15.4808 16.3897 16.5001 15.5081C16.5619 15.4543 16.6396 15.4223 16.7214 15.4169C16.8032 15.4114 16.8845 15.433 16.9529 15.4781C17.756 16.0065 18.4496 16.6848 18.9957 17.4759C20.3412 15.9694 21.0845 14.0199 21.0835 12Z" fill="currentColor"/>
</svg>
