<svg width="25" height="24" viewBox="0 0 25 24" fill="none" xmlns="http://www.w3.org/2000/svg">
<g opacity="0.4">
<path opacity="0.2" d="M21.8335 12C21.8348 13.2621 21.57 14.5104 21.0563 15.6633C20.5426 16.8162 19.7916 17.8479 18.8522 18.6909C18.2875 17.5801 17.4262 16.6472 16.3639 15.9958C15.3016 15.3443 14.0797 14.9996 12.8335 15C13.5752 15 14.3002 14.78 14.9169 14.368C15.5336 13.9559 16.0142 13.3702 16.298 12.685C16.5819 11.9998 16.6561 11.2458 16.5114 10.5184C16.3667 9.79095 16.0096 9.12276 15.4851 8.59831C14.9607 8.07387 14.2925 7.71671 13.5651 7.57202C12.8377 7.42732 12.0837 7.50159 11.3984 7.78541C10.7132 8.06924 10.1275 8.54989 9.71549 9.16657C9.30343 9.78326 9.0835 10.5083 9.0835 11.25C9.0835 12.2445 9.47859 13.1984 10.1818 13.9016C10.8851 14.6049 11.8389 15 12.8335 15C11.5873 14.9996 10.3654 15.3443 9.30307 15.9958C8.24075 16.6472 7.3795 17.5801 6.81475 18.6909C5.69936 17.6876 4.85246 16.4215 4.35105 15.0075C3.84965 13.5936 3.70965 12.0767 3.94378 10.5949C4.17791 9.11308 4.77876 7.71329 5.69167 6.52281C6.60458 5.33234 7.8006 4.38896 9.17097 3.77845C10.5413 3.16794 12.0426 2.90968 13.5382 3.02714C15.0338 3.14461 16.4763 3.63408 17.7346 4.45103C18.9928 5.26799 20.0269 6.38653 20.7428 7.70492C21.4586 9.02332 21.8336 10.4998 21.8335 12Z" fill="#171717"/>
<path d="M12.8335 2.25C10.9051 2.25 9.02007 2.82183 7.41669 3.89317C5.81331 4.96451 4.56363 6.48726 3.82568 8.26884C3.08772 10.0504 2.89464 12.0108 3.27084 13.9021C3.64705 15.7934 4.57565 17.5307 5.93921 18.8943C7.30277 20.2579 9.04006 21.1865 10.9314 21.5627C12.8227 21.9389 14.7831 21.7458 16.5647 21.0078C18.3462 20.2699 19.869 19.0202 20.9403 17.4168C22.0117 15.8134 22.5835 13.9284 22.5835 12C22.5808 9.41498 21.5527 6.93661 19.7248 5.10872C17.8969 3.28084 15.4185 2.25273 12.8335 2.25ZM7.7785 18.5156C8.32106 17.6671 9.06851 16.9688 9.95193 16.4851C10.8353 16.0013 11.8263 15.7478 12.8335 15.7478C13.8407 15.7478 14.8317 16.0013 15.7151 16.4851C16.5985 16.9688 17.3459 17.6671 17.8885 18.5156C16.4432 19.6397 14.6645 20.2499 12.8335 20.2499C11.0025 20.2499 9.22381 19.6397 7.7785 18.5156ZM9.8335 11.25C9.8335 10.6567 10.0094 10.0766 10.3391 9.58329C10.6687 9.08994 11.1373 8.70542 11.6854 8.47836C12.2336 8.2513 12.8368 8.19189 13.4188 8.30764C14.0007 8.4234 14.5353 8.70912 14.9548 9.12868C15.3744 9.54824 15.6601 10.0828 15.7759 10.6647C15.8916 11.2467 15.8322 11.8499 15.6051 12.3981C15.3781 12.9462 14.9936 13.4148 14.5002 13.7444C14.0069 14.0741 13.4268 14.25 12.8335 14.25C12.0379 14.25 11.2748 13.9339 10.7122 13.3713C10.1496 12.8087 9.8335 12.0456 9.8335 11.25ZM18.9985 17.4759C18.162 16.2638 16.9859 15.3261 15.6179 14.7806C16.3527 14.2019 16.8889 13.4085 17.1519 12.5108C17.415 11.6132 17.3917 10.6559 17.0854 9.77207C16.7792 8.88825 16.2051 8.12183 15.4431 7.5794C14.681 7.03696 13.7689 6.74548 12.8335 6.74548C11.8981 6.74548 10.986 7.03696 10.2239 7.5794C9.46189 8.12183 8.88782 8.88825 8.58155 9.77207C8.27528 10.6559 8.25205 11.6132 8.51507 12.5108C8.77809 13.4085 9.3143 14.2019 10.0491 14.7806C8.68114 15.3261 7.50497 16.2638 6.6685 17.4759C5.61153 16.2873 4.92069 14.8185 4.67917 13.2464C4.43764 11.6743 4.65573 10.0658 5.30717 8.61478C5.95861 7.16372 7.01563 5.93192 8.35094 5.06769C9.68625 4.20346 11.2429 3.74367 12.8335 3.74367C14.4241 3.74367 15.9807 4.20346 17.3161 5.06769C18.6514 5.93192 19.7084 7.16372 20.3598 8.61478C21.0113 10.0658 21.2294 11.6743 20.9878 13.2464C20.7463 14.8185 20.0555 16.2873 18.9985 17.4759Z" fill="#171717"/>
</g>
</svg>
